<svg width="84" height="40" viewBox="0 0 84 40" fill="none" xmlns="http://www.w3.org/2000/svg">
<g clip-path="url(#clip0_5204_1490)">
<path d="M30.2041 2.95192H1.63265C0.796628 2.95192 0.125 2.30869 0.125 1.53846C0.125 0.768237 0.796628 0.125 1.63265 0.125H30.2041C31.0401 0.125 31.7117 0.768237 31.7117 1.53846C31.7117 2.30869 31.0401 2.95192 30.2041 2.95192Z" fill="#6F9DE2" stroke="white" stroke-width="0.25"/>
<path d="M38.7347 2.95192H35.4694C34.6334 2.95192 33.9618 2.30869 33.9618 1.53846C33.9618 0.768237 34.6334 0.125 35.4694 0.125H38.7347C39.5708 0.125 40.2424 0.768237 40.2424 1.53846C40.2424 2.30869 39.5708 2.95192 38.7347 2.95192Z" fill="#DAE4F2" stroke="#6F9DE2" stroke-width="0.25"/>
<path d="M20.8163 9.02884H1.63265C0.796628 9.02884 0.125 8.38561 0.125 7.61538C0.125 6.84516 0.796628 6.20192 1.63265 6.20192H20.8163C21.6524 6.20192 22.324 6.84516 22.324 7.61538C22.324 8.38561 21.6524 9.02884 20.8163 9.02884Z" fill="#DAE4F2" stroke="#6F9DE2" stroke-width="0.25"/>
<path d="M35.0612 9.02884H26.0816C25.2456 9.02884 24.574 8.38561 24.574 7.61538C24.574 6.84516 25.2456 6.20192 26.0816 6.20192H35.0612C35.8972 6.20192 36.5689 6.84516 36.5689 7.61538C36.5689 8.38561 35.8972 9.02884 35.0612 9.02884Z" fill="#DAE4F2" stroke="#6F9DE2" stroke-width="0.25"/>
<path d="M10.2041 15.1058H1.63265C0.796628 15.1058 0.125 14.4625 0.125 13.6923C0.125 12.9221 0.796628 12.2788 1.63265 12.2788H10.2041C11.0401 12.2788 11.7117 12.9221 11.7117 13.6923C11.7117 14.4625 11.0401 15.1058 10.2041 15.1058Z" fill="#6F9DE2" stroke="white" stroke-width="0.25"/>
<path d="M17.1021 15.1058H15.4694C14.6334 15.1058 13.9618 14.4625 13.9618 13.6923C13.9618 12.9221 14.6334 12.2788 15.4694 12.2788H17.1021C17.9381 12.2788 18.6097 12.9221 18.6097 13.6923C18.6097 14.4625 17.9381 15.1058 17.1021 15.1058Z" fill="#DAE4F2" stroke="#6F9DE2" stroke-width="0.25"/>
<path d="M18.3673 21.1827H1.63265C0.796628 21.1827 0.125 20.5394 0.125 19.7692C0.125 18.999 0.796628 18.3558 1.63265 18.3558H18.3673C19.2034 18.3558 19.875 18.999 19.875 19.7692C19.875 20.5394 19.2034 21.1827 18.3673 21.1827Z" fill="#6F9DE2" stroke="white" stroke-width="0.25"/>
<path d="M30.9796 21.1827H23.6327C22.7966 21.1827 22.125 20.5394 22.125 19.7692C22.125 18.999 22.7966 18.3558 23.6327 18.3558H30.9796C31.8156 18.3558 32.4872 18.999 32.4872 19.7692C32.4872 20.5394 31.8156 21.1827 30.9796 21.1827Z" fill="#DAE4F2" stroke="#6F9DE2" stroke-width="0.25"/>
<path d="M22.0408 27.2596H1.63265C0.796628 27.2596 0.125 26.6164 0.125 25.8461C0.125 25.0759 0.796628 24.4327 1.63265 24.4327H22.0408C22.8768 24.4327 23.5485 25.0759 23.5485 25.8461C23.5485 26.6164 22.8768 27.2596 22.0408 27.2596Z" fill="#6F9DE2" stroke="white" stroke-width="0.25"/>
<path d="M30.5714 27.2596H27.3061C26.4701 27.2596 25.7985 26.6164 25.7985 25.8461C25.7985 25.0759 26.4701 24.4327 27.3061 24.4327H30.5714C31.4074 24.4327 32.0791 25.0759 32.0791 25.8461C32.0791 26.6164 31.4074 27.2596 30.5714 27.2596Z" fill="#DAE4F2" stroke="#6F9DE2" stroke-width="0.25"/>
<path d="M12.6531 33.3365H1.63265C0.796628 33.3365 0.125 32.6933 0.125 31.9231C0.125 31.1528 0.796628 30.5096 1.63265 30.5096H12.6531C13.4891 30.5096 14.1607 31.1528 14.1607 31.9231C14.1607 32.6933 13.4891 33.3365 12.6531 33.3365Z" fill="#6F9DE2" stroke="white" stroke-width="0.25"/>
<path d="M9.79592 39.4134H1.63265C0.796627 39.4134 0.125 38.7702 0.125 38C0.125 37.2298 0.796627 36.5865 1.63265 36.5865H9.79592C10.6319 36.5865 11.3036 37.2298 11.3036 38C11.3036 38.7702 10.6319 39.4134 9.79592 39.4134Z" fill="#6F9DE2" stroke="white" stroke-width="0.25"/>
<path d="M16.2857 39.4134H15.0612C14.2252 39.4134 13.5536 38.7702 13.5536 38C13.5536 37.2298 14.2252 36.5865 15.0612 36.5865H16.2857C17.1218 36.5865 17.7934 37.2298 17.7934 38C17.7934 38.7702 17.1218 39.4134 16.2857 39.4134Z" fill="#DAE4F2" stroke="#6F9DE2" stroke-width="0.25"/>
</g>
<path d="M66.4325 26.875H61.5677C60.9183 26.875 60.3337 26.7109 59.9154 26.453C59.4949 26.1937 59.2603 25.8527 59.2603 25.5C59.2603 25.1473 59.4949 24.8063 59.9154 24.547C60.3337 24.2891 60.9183 24.125 61.5677 24.125H66.4325C67.0819 24.125 67.6665 24.2891 68.0848 24.547C68.5054 24.8063 68.74 25.1473 68.74 25.5C68.74 25.8527 68.5054 26.1937 68.0848 26.453C67.6665 26.7109 67.0819 26.875 66.4325 26.875Z" fill="#DAE4F2" stroke="#6F9DE2" stroke-width="0.25"/>
<path d="M65.8919 21.0278H62.1081C61.1142 21.0278 60.3412 20.354 60.3412 19.5764C60.3412 18.7988 61.1142 18.125 62.1081 18.125H65.8919C66.8857 18.125 67.6587 18.7988 67.6587 19.5764C67.6587 20.354 66.8857 21.0278 65.8919 21.0278Z" fill="#DAE4F2" stroke="#6F9DE2" stroke-width="0.25"/>
<path d="M69.946 3.0246H59.1352C58.5644 3.0246 58.0502 2.85435 57.6817 2.58596C57.313 2.31739 57.098 1.95779 57.098 1.5748C57.098 1.19181 57.313 0.832216 57.6817 0.563638C58.0502 0.295256 58.5644 0.125 59.1352 0.125H69.946C70.5168 0.125 71.0309 0.295256 71.3994 0.563638C71.7682 0.832216 71.9831 1.19181 71.9831 1.5748C71.9831 1.95779 71.7682 2.31739 71.3994 2.58596C71.0309 2.85435 70.5168 3.0246 69.946 3.0246Z" fill="#6F9DE2" stroke="white" stroke-width="0.25"/>
<path d="M76.6639 9.16633H67.0114C65.9937 9.16633 65.2059 8.49105 65.2059 7.71653C65.2059 6.94202 65.9937 6.26673 67.0114 6.26673H76.6639C77.6817 6.26673 78.4694 6.94202 78.4694 7.71653C78.4694 8.49105 77.6817 9.16633 76.6639 9.16633Z" fill="#6F9DE2" stroke="white" stroke-width="0.25"/>
<path d="M77.8224 15.3081H68.556C67.5859 15.3081 66.8278 14.6371 66.8278 13.8583C66.8278 13.0795 67.5859 12.4085 68.556 12.4085H77.8224C78.7926 12.4085 79.5507 13.0795 79.5507 13.8583C79.5507 14.6371 78.7926 15.3081 77.8224 15.3081Z" fill="#6F9DE2" stroke="white" stroke-width="0.25"/>
<path d="M79.0578 21.0246H70.5636C69.6892 21.0246 68.9897 20.3632 68.9897 19.5748C68.9897 18.7865 69.6892 18.125 70.5636 18.125H79.0578C79.9322 18.125 80.6316 18.7865 80.6316 19.5748C80.6316 20.3632 79.9322 21.0246 79.0578 21.0246Z" fill="#6F9DE2" stroke="white" stroke-width="0.25"/>
<path d="M80.2934 27.0246H72.5714C71.7933 27.0246 71.152 26.3742 71.152 25.5748C71.152 24.7754 71.7933 24.125 72.5714 24.125H80.2934C81.0715 24.125 81.7128 24.7754 81.7128 25.5748C81.7128 26.3742 81.0715 27.0246 80.2934 27.0246Z" fill="#6F9DE2" stroke="white" stroke-width="0.25"/>
<path d="M81.529 33.0246H74.5792C73.8979 33.0246 73.3142 32.387 73.3142 31.5748C73.3142 30.7626 73.8979 30.125 74.5792 30.125H81.529C82.2102 30.125 82.7939 30.7626 82.7939 31.5748C82.7939 32.387 82.2102 33.0246 81.529 33.0246Z" fill="#6F9DE2" stroke="white" stroke-width="0.25"/>
<path d="M60.9884 9.16633H51.3359C50.3182 9.16633 49.5304 8.49105 49.5304 7.71653C49.5304 6.94202 50.3182 6.26673 51.3359 6.26673H60.9884C62.0061 6.26673 62.7939 6.94202 62.7939 7.71653C62.7939 8.49105 62.0061 9.16633 60.9884 9.16633Z" fill="#6F9DE2" stroke="white" stroke-width="0.25"/>
<path d="M59.4441 15.3081H50.1777C49.2076 15.3081 48.4495 14.6371 48.4495 13.8583C48.4495 13.0795 49.2076 12.4085 50.1777 12.4085H59.4441C60.4143 12.4085 61.1724 13.0795 61.1724 13.8583C61.1724 14.6371 60.4143 15.3081 59.4441 15.3081Z" fill="#6F9DE2" stroke="white" stroke-width="0.25"/>
<path d="M57.4362 21.0246H48.942C48.0676 21.0246 47.3682 20.3632 47.3682 19.5748C47.3682 18.7865 48.0676 18.125 48.942 18.125H57.4362C58.3106 18.125 59.01 18.7865 59.01 19.5748C59.01 20.3632 58.3106 21.0246 57.4362 21.0246Z" fill="#6F9DE2" stroke="white" stroke-width="0.25"/>
<path d="M55.4286 27.0246H47.7066C46.9285 27.0246 46.2872 26.3742 46.2872 25.5748C46.2872 24.7754 46.9285 24.125 47.7066 24.125H55.4286C56.2067 24.125 56.848 24.7754 56.848 25.5748C56.848 26.3742 56.2067 27.0246 55.4286 27.0246Z" fill="#6F9DE2" stroke="white" stroke-width="0.25"/>
<path d="M53.4207 33.0246H46.4709C45.7897 33.0246 45.2059 32.387 45.2059 31.5748C45.2059 30.7626 45.7897 30.125 46.4709 30.125H53.4207C54.1019 30.125 54.6857 30.7626 54.6857 31.5748C54.6857 32.387 54.1019 33.0246 53.4207 33.0246Z" fill="#6F9DE2" stroke="white" stroke-width="0.25"/>
<path d="M51.4131 39.0246H45.2355C44.6516 39.0246 44.125 38.4019 44.125 37.5748C44.125 36.7477 44.6516 36.125 45.2355 36.125H51.4131C51.9971 36.125 52.5236 36.7477 52.5236 37.5748C52.5236 38.4019 51.9971 39.0246 51.4131 39.0246Z" fill="#6F9DE2" stroke="white" stroke-width="0.25"/>
<path d="M82.7646 39.0246H76.587C76.003 39.0246 75.4764 38.4019 75.4764 37.5748C75.4764 36.7477 76.003 36.125 76.587 36.125H82.7646C83.3485 36.125 83.8751 36.7477 83.8751 37.5748C83.8751 38.4019 83.3485 39.0246 82.7646 39.0246Z" fill="#6F9DE2" stroke="white" stroke-width="0.25"/>
<defs>
<clipPath id="clip0_5204_1490">
<rect width="40" height="40" fill="white"/>
</clipPath>
</defs>
</svg>
