<svg width="72" height="40" viewBox="0 0 72 40" fill="none" xmlns="http://www.w3.org/2000/svg">
<path d="M30.2041 2.95192H1.63265C0.796628 2.95192 0.125 2.30869 0.125 1.53846C0.125 0.768237 0.796628 0.125 1.63265 0.125H30.2041C31.0401 0.125 31.7117 0.768237 31.7117 1.53846C31.7117 2.30869 31.0401 2.95192 30.2041 2.95192Z" fill="#6F9DE2" stroke="white" stroke-width="0.25"/>
<path d="M38.3673 2.95192H35.102C34.266 2.95192 33.5944 2.30869 33.5944 1.53846C33.5944 0.768237 34.266 0.125 35.102 0.125H38.3673C39.2033 0.125 39.875 0.768237 39.875 1.53846C39.875 2.30869 39.2033 2.95192 38.3673 2.95192Z" fill="#DAE4F2" stroke="#6F9DE2" stroke-width="0.25"/>
<path d="M20.8163 8.92478H1.63265C0.796628 8.92478 0.125 8.28154 0.125 7.51132C0.125 6.74109 0.796628 6.09785 1.63265 6.09785H20.8163C21.6524 6.09785 22.324 6.74109 22.324 7.51132C22.324 8.28154 21.6524 8.92478 20.8163 8.92478Z" fill="#DAE4F2" stroke="#6F9DE2" stroke-width="0.25"/>
<path d="M35.102 8.92478H26.1224C25.2864 8.92478 24.6147 8.28154 24.6147 7.51132C24.6147 6.74109 25.2864 6.09785 26.1224 6.09785H35.102C35.938 6.09785 36.6096 6.74109 36.6096 7.51132C36.6096 8.28154 35.938 8.92478 35.102 8.92478Z" fill="#DAE4F2" stroke="#6F9DE2" stroke-width="0.25"/>
<path d="M10.2041 14.8976H1.63265C0.796628 14.8976 0.125 14.2544 0.125 13.4842C0.125 12.7139 0.796628 12.0707 1.63265 12.0707H10.2041C11.0401 12.0707 11.7117 12.7139 11.7117 13.4842C11.7117 14.2544 11.0401 14.8976 10.2041 14.8976Z" fill="#6F9DE2" stroke="white" stroke-width="0.25"/>
<path d="M16.3266 14.8976H14.6939C13.8579 14.8976 13.1863 14.2544 13.1863 13.4842C13.1863 12.7139 13.8579 12.0707 14.6939 12.0707H16.3266C17.1626 12.0707 17.8342 12.7139 17.8342 13.4842C17.8342 14.2544 17.1626 14.8976 16.3266 14.8976Z" fill="#DAE4F2" stroke="#6F9DE2" stroke-width="0.25"/>
<path d="M18.3673 20.8705H1.63265C0.796628 20.8705 0.125 20.2272 0.125 19.457C0.125 18.6868 0.796628 18.0435 1.63265 18.0435H18.3673C19.2034 18.0435 19.875 18.6868 19.875 19.457C19.875 20.2272 19.2034 20.8705 18.3673 20.8705Z" fill="#6F9DE2" stroke="white" stroke-width="0.25"/>
<path d="M30.2041 20.8705H22.8571C22.0211 20.8705 21.3495 20.2272 21.3495 19.457C21.3495 18.6868 22.0211 18.0435 22.8571 18.0435H30.2041C31.0401 18.0435 31.7117 18.6868 31.7117 19.457C31.7117 20.2272 31.0401 20.8705 30.2041 20.8705Z" fill="#DAE4F2" stroke="#6F9DE2" stroke-width="0.25"/>
<path d="M22.0408 26.8433H1.63265C0.796628 26.8433 0.125 26.2001 0.125 25.4299C0.125 24.6596 0.796628 24.0164 1.63265 24.0164H22.0408C22.8768 24.0164 23.5485 24.6596 23.5485 25.4299C23.5485 26.2001 22.8768 26.8433 22.0408 26.8433Z" fill="#6F9DE2" stroke="white" stroke-width="0.25"/>
<path d="M30.2041 26.8433H26.9388C26.1028 26.8433 25.4312 26.2001 25.4312 25.4299C25.4312 24.6596 26.1028 24.0164 26.9388 24.0164H30.2041C31.0401 24.0164 31.7118 24.6596 31.7118 25.4299C31.7118 26.2001 31.0401 26.8433 30.2041 26.8433Z" fill="#DAE4F2" stroke="#6F9DE2" stroke-width="0.25"/>
<path d="M12.6531 32.8162H1.63265C0.796628 32.8162 0.125 32.1729 0.125 31.4027C0.125 30.6325 0.796628 29.9893 1.63265 29.9893H12.6531C13.4891 29.9893 14.1607 30.6325 14.1607 31.4027C14.1607 32.1729 13.4891 32.8162 12.6531 32.8162Z" fill="#6F9DE2" stroke="white" stroke-width="0.25"/>
<path d="M9.79592 38.789H1.63265C0.796627 38.789 0.125 38.1458 0.125 37.3756C0.125 36.6053 0.796627 35.9621 1.63265 35.9621H9.79592C10.6319 35.9621 11.3036 36.6053 11.3036 37.3756C11.3036 38.1458 10.6319 38.789 9.79592 38.789Z" fill="#6F9DE2" stroke="white" stroke-width="0.25"/>
<path d="M15.5102 38.789H14.2857C13.4497 38.789 12.7781 38.1458 12.7781 37.3756C12.7781 36.6053 13.4497 35.9621 14.2857 35.9621H15.5102C16.3462 35.9621 17.0179 36.6053 17.0179 37.3756C17.0179 38.1458 16.3462 38.789 15.5102 38.789Z" fill="#DAE4F2" stroke="#6F9DE2" stroke-width="0.25"/>
<path d="M57.5 26.9459H54.5C53.7468 26.9459 53.125 26.3137 53.125 25.5354C53.125 24.7572 53.7468 24.125 54.5 24.125H57.5C58.2532 24.125 58.875 24.7572 58.875 25.5354C58.875 26.3137 58.2532 26.9459 57.5 26.9459Z" fill="#DAE4F2" stroke="#6F9DE2" stroke-width="0.25"/>
<path d="M57.5 21.0278H54.5C53.7498 21.0278 53.125 20.3803 53.125 19.5764C53.125 18.7725 53.7498 18.125 54.5 18.125H57.5C58.2502 18.125 58.875 18.7725 58.875 19.5764C58.875 20.3803 58.2502 21.0278 57.5 21.0278Z" fill="#DAE4F2" stroke="#6F9DE2" stroke-width="0.25"/>
<path d="M60.2857 3.0246H51.7143C50.8303 3.0246 50.125 2.36213 50.125 1.5748C50.125 0.787471 50.8303 0.125 51.7143 0.125H60.2857C61.1697 0.125 61.875 0.787471 61.875 1.5748C61.875 2.36213 61.1697 3.0246 60.2857 3.0246Z" fill="#6F9DE2" stroke="white" stroke-width="0.25"/>
<path d="M65.5 9.16633H58C57.2497 9.16633 56.625 8.51944 56.625 7.71653C56.625 6.91363 57.2497 6.26673 58 6.26673H65.5C66.2503 6.26673 66.875 6.91363 66.875 7.71653C66.875 8.51944 66.2503 9.16633 65.5 9.16633Z" fill="#6F9DE2" stroke="white" stroke-width="0.25"/>
<path d="M66.5714 15.3081H59.4286C58.7231 15.3081 58.125 14.6671 58.125 13.8583C58.125 13.0494 58.7231 12.4085 59.4286 12.4085H66.5714C67.2769 12.4085 67.875 13.0494 67.875 13.8583C67.875 14.6671 67.2769 15.3081 66.5714 15.3081Z" fill="#6F9DE2" stroke="white" stroke-width="0.25"/>
<path d="M67.7143 21.0246H61.2857C60.6701 21.0246 60.125 20.3968 60.125 19.5748C60.125 18.7528 60.6701 18.125 61.2857 18.125H67.7143C68.3299 18.125 68.875 18.7528 68.875 19.5748C68.875 20.3968 68.3299 21.0246 67.7143 21.0246Z" fill="#6F9DE2" stroke="white" stroke-width="0.25"/>
<path d="M68.8571 27.0246H63.1429C62.8789 27.0246 62.6273 26.8759 62.4369 26.6136C62.2467 26.3516 62.125 25.9842 62.125 25.5748C62.125 25.1654 62.2467 24.798 62.4369 24.536C62.6273 24.2737 62.8789 24.125 63.1429 24.125H68.8571C69.1211 24.125 69.3727 24.2737 69.5631 24.536C69.7533 24.798 69.875 25.1654 69.875 25.5748C69.875 25.9842 69.7533 26.3516 69.5631 26.6136C69.3727 26.8759 69.1211 27.0246 68.8571 27.0246Z" fill="#6F9DE2" stroke="white" stroke-width="0.25"/>
<path d="M70 33.0246H65C64.783 33.0246 64.5672 32.8844 64.3993 32.62C64.2325 32.3573 64.125 31.9876 64.125 31.5748C64.125 31.162 64.2325 30.7923 64.3993 30.5296C64.5672 30.2652 64.783 30.125 65 30.125H70C70.217 30.125 70.4328 30.2652 70.6007 30.5296C70.7675 30.7923 70.875 31.162 70.875 31.5748C70.875 31.9876 70.7675 32.3573 70.6007 32.62C70.4328 32.8844 70.217 33.0246 70 33.0246Z" fill="#6F9DE2" stroke="white" stroke-width="0.25"/>
<path d="M54 9.16633H46.5C45.7497 9.16633 45.125 8.51944 45.125 7.71653C45.125 6.91363 45.7497 6.26673 46.5 6.26673H54C54.7503 6.26673 55.375 6.91363 55.375 7.71653C55.375 8.51944 54.7503 9.16633 54 9.16633Z" fill="#6F9DE2" stroke="white" stroke-width="0.25"/>
<path d="M52.5714 15.3081H45.4286C44.7231 15.3081 44.125 14.6671 44.125 13.8583C44.125 13.0494 44.7231 12.4085 45.4286 12.4085H52.5714C53.2769 12.4085 53.875 13.0494 53.875 13.8583C53.875 14.6671 53.2769 15.3081 52.5714 15.3081Z" fill="#6F9DE2" stroke="white" stroke-width="0.25"/>
<path d="M50.7143 21.0246H44.2857C43.6701 21.0246 43.125 20.3968 43.125 19.5748C43.125 18.7528 43.6701 18.125 44.2857 18.125H50.7143C51.3299 18.125 51.875 18.7528 51.875 19.5748C51.875 20.3968 51.3299 21.0246 50.7143 21.0246Z" fill="#6F9DE2" stroke="white" stroke-width="0.25"/>
<path d="M48.8571 27.0246H43.1429C42.8789 27.0246 42.6273 26.8759 42.4369 26.6136C42.2467 26.3516 42.125 25.9842 42.125 25.5748C42.125 25.1654 42.2467 24.798 42.4369 24.536C42.6273 24.2737 42.8789 24.125 43.1429 24.125H48.8571C49.1211 24.125 49.3727 24.2737 49.5631 24.536C49.7533 24.798 49.875 25.1654 49.875 25.5748C49.875 25.9842 49.7533 26.3516 49.5631 26.6136C49.3727 26.8759 49.1211 27.0246 48.8571 27.0246Z" fill="#6F9DE2" stroke="white" stroke-width="0.25"/>
<path d="M47 33.0246H42C41.783 33.0246 41.5672 32.8844 41.3993 32.62C41.2325 32.3573 41.125 31.9876 41.125 31.5748C41.125 31.162 41.2325 30.7923 41.3993 30.5296C41.5672 30.2652 41.783 30.125 42 30.125H47C47.217 30.125 47.4328 30.2652 47.6007 30.5296C47.7675 30.7923 47.875 31.162 47.875 31.5748C47.875 31.9876 47.7675 32.3573 47.6007 32.62C47.4328 32.8844 47.217 33.0246 47 33.0246Z" fill="#6F9DE2" stroke="white" stroke-width="0.25"/>
<path d="M45.1429 39.0246H40.8571C40.6891 39.0246 40.508 38.8963 40.3616 38.6272C40.2179 38.3633 40.125 37.9909 40.125 37.5748C40.125 37.1587 40.2179 36.7863 40.3616 36.5224C40.508 36.2533 40.6891 36.125 40.8571 36.125H45.1429C45.3109 36.125 45.492 36.2533 45.6384 36.5224C45.7821 36.7863 45.875 37.1587 45.875 37.5748C45.875 37.9909 45.7821 38.3633 45.6384 38.6272C45.492 38.8963 45.3109 39.0246 45.1429 39.0246Z" fill="#6F9DE2" stroke="white" stroke-width="0.25"/>
<path d="M71.1429 39.0246H66.8571C66.6891 39.0246 66.508 38.8963 66.3616 38.6272C66.2179 38.3633 66.125 37.9909 66.125 37.5748C66.125 37.1587 66.2179 36.7863 66.3616 36.5224C66.508 36.2533 66.6891 36.125 66.8571 36.125H71.1429C71.3109 36.125 71.492 36.2533 71.6384 36.5224C71.7821 36.7863 71.875 37.1587 71.875 37.5748C71.875 37.9909 71.7821 38.3633 71.6384 38.6272C71.492 38.8963 71.3109 39.0246 71.1429 39.0246Z" fill="#6F9DE2" stroke="white" stroke-width="0.25"/>
</svg>
