<svg width="40" height="40" viewBox="0 0 40 40" fill="none" xmlns="http://www.w3.org/2000/svg">
<path d="M30.2041 3.07692H1.63265C0.734694 3.07692 0 2.38462 0 1.53846C0 0.692308 0.734694 0 1.63265 0H30.2041C31.102 0 31.8367 0.692308 31.8367 1.53846C31.8367 2.38462 31.102 3.07692 30.2041 3.07692Z" fill="#6F9DE2"/>
<path d="M38.3673 3.07692H35.102C34.2041 3.07692 33.4694 2.38462 33.4694 1.53846C33.4694 0.692308 34.2041 0 35.102 0H38.3673C39.2653 0 40 0.692308 40 1.53846C40 2.38462 39.2653 3.07692 38.3673 3.07692Z" fill="#DAE4F2"/>
<path d="M20.8163 9.04978H1.63265C0.734694 9.04978 0 8.35747 0 7.51132C0 6.66516 0.734694 5.97285 1.63265 5.97285H20.8163C21.7143 5.97285 22.449 6.66516 22.449 7.51132C22.449 8.35747 21.7143 9.04978 20.8163 9.04978Z" fill="#DAE4F2"/>
<path d="M35.102 9.04978H26.1224C25.2244 9.04978 24.4897 8.35747 24.4897 7.51132C24.4897 6.66516 25.2244 5.97285 26.1224 5.97285H35.102C35.9999 5.97285 36.7346 6.66516 36.7346 7.51132C36.7346 8.35747 35.9999 9.04978 35.102 9.04978Z" fill="#DAE4F2"/>
<path d="M10.2041 15.0226H1.63265C0.734694 15.0226 0 14.3303 0 13.4842C0 12.638 0.734694 11.9457 1.63265 11.9457H10.2041C11.102 11.9457 11.8367 12.638 11.8367 13.4842C11.8367 14.3303 11.102 15.0226 10.2041 15.0226Z" fill="#6F9DE2"/>
<path d="M16.3266 15.0226H14.6939C13.796 15.0226 13.0613 14.3303 13.0613 13.4842C13.0613 12.638 13.796 11.9457 14.6939 11.9457H16.3266C17.2245 11.9457 17.9592 12.638 17.9592 13.4842C17.9592 14.3303 17.2245 15.0226 16.3266 15.0226Z" fill="#DAE4F2"/>
<path d="M18.3673 20.9955H1.63265C0.734694 20.9955 0 20.3032 0 19.457C0 18.6109 0.734694 17.9185 1.63265 17.9185H18.3673C19.2653 17.9185 20 18.6109 20 19.457C20 20.3032 19.2653 20.9955 18.3673 20.9955Z" fill="#6F9DE2"/>
<path d="M30.2041 20.9955H22.8571C21.9592 20.9955 21.2245 20.3032 21.2245 19.457C21.2245 18.6109 21.9592 17.9185 22.8571 17.9185H30.2041C31.102 17.9185 31.8367 18.6109 31.8367 19.457C31.8367 20.3032 31.102 20.9955 30.2041 20.9955Z" fill="#DAE4F2"/>
<path d="M22.0408 26.9683H1.63265C0.734694 26.9683 0 26.276 0 25.4299C0 24.5837 0.734694 23.8914 1.63265 23.8914H22.0408C22.9388 23.8914 23.6735 24.5837 23.6735 25.4299C23.6735 26.276 22.9388 26.9683 22.0408 26.9683Z" fill="#6F9DE2"/>
<path d="M30.2041 26.9683H26.9388C26.0408 26.9683 25.3062 26.276 25.3062 25.4299C25.3062 24.5837 26.0408 23.8914 26.9388 23.8914H30.2041C31.1021 23.8914 31.8368 24.5837 31.8368 25.4299C31.8368 26.276 31.1021 26.9683 30.2041 26.9683Z" fill="#DAE4F2"/>
<path d="M12.6531 32.9412H1.63265C0.734694 32.9412 0 32.2489 0 31.4027C0 30.5566 0.734694 29.8643 1.63265 29.8643H12.6531C13.551 29.8643 14.2857 30.5566 14.2857 31.4027C14.2857 32.2489 13.551 32.9412 12.6531 32.9412Z" fill="#6F9DE2"/>
<path d="M9.79592 38.914H1.63265C0.734694 38.914 0 38.2217 0 37.3756C0 36.5294 0.734694 35.8371 1.63265 35.8371H9.79592C10.6939 35.8371 11.4286 36.5294 11.4286 37.3756C11.4286 38.2217 10.6939 38.914 9.79592 38.914Z" fill="#6F9DE2"/>
<path d="M15.5102 38.914H14.2857C13.3878 38.914 12.6531 38.2217 12.6531 37.3756C12.6531 36.5294 13.3878 35.8371 14.2857 35.8371H15.5102C16.4082 35.8371 17.1429 36.5294 17.1429 37.3756C17.1429 38.2217 16.4082 38.914 15.5102 38.914Z" fill="#DAE4F2"/>
</svg>
